<?xml version="1.0" encoding="iso-8859-1"?>
<!-- Uploaded to: SVG Repo, www.svgrepo.com, Generator: SVG Repo Mixer Tools -->
<svg fill="#000000" height="30px" width="30px" version="1.1" id="Layer_1" xmlns="http://www.w3.org/2000/svg" xmlns:xlink="http://www.w3.org/1999/xlink" 
	 viewBox="0 0 512 512" xml:space="preserve">
<g>
	<g>
		<g>
			<path d="M96.711,245.262c37.127,0,67.333-30.206,67.333-67.333c0-37.127-30.206-67.333-67.333-67.333
				s-67.333,30.205-67.333,67.333C29.379,215.056,59.584,245.262,96.711,245.262z"/>
			<path d="M256,245.262c37.127,0,67.333-30.206,67.333-67.333c0-37.127-30.206-67.333-67.333-67.333
				c-37.127,0-67.333,30.205-67.333,67.333C188.667,215.056,218.873,245.262,256,245.262z"/>
			<path d="M415.289,245.262c37.127,0,67.333-30.206,67.333-67.333c0-37.127-30.206-67.333-67.333-67.333
				s-67.333,30.205-67.333,67.333C347.956,215.056,378.162,245.262,415.289,245.262z"/>
			<path d="M335.644,298.668c-38.588-55.933-120.761-55.844-159.289,0C122.534,220.656,0,258.922,0,353.444v30.893
				c0,9.425,7.641,17.067,17.067,17.067c8.71,0,468.095,0,477.867,0c9.425,0,17.067-7.641,17.067-17.067v-30.893
				C512,258.922,389.452,220.675,335.644,298.668z"/>
		</g>
	</g>
</g>
</svg>