<?xml version="1.0" ?><!-- Uploaded to: SVG Repo, www.svgrepo.com, Generator: SVG Repo Mixer Tools -->
<svg fill="#000000" width="60px" height="60px" viewBox="0 0 64 64" data-name="Layer 1" id="Layer_1" xmlns="http://www.w3.org/2000/svg"><title/><rect height="8" width="8" x="6" y="54"/><rect height="11" width="8" x="21" y="51"/><rect height="15" width="8" x="36" y="47"/><rect height="24" width="8" x="51" y="38"/><rect height="10" width="4.5" x="39" y="18"/><rect height="10" width="3" x="44.5" y="18"/><rect height="10" width="4.5" x="48.5" y="18"/><path d="M30.00146,17.9502l-.002.08007L32,18a14.02975,14.02975,0,0,1,.46582-3.59473l-1.93359-.51269A15.88629,15.88629,0,0,0,30.00146,17.9502Z"/><path d="M46.01514,34,46,32a14.03255,14.03255,0,0,1-3.6084-.46924L41.877,33.46338A16.04749,16.04749,0,0,0,46,34Z"/><path d="M41.81494,2.55322a15.905,15.905,0,0,0-3.85351,1.60987L38.96729,5.8916a13.90736,13.90736,0,0,1,3.36914-1.40771Z"/><path d="M59.52686,21.62256l1.93261.51562A16.057,16.057,0,0,0,62,18v-.06055L60,18A14.04072,14.04072,0,0,1,59.52686,21.62256Z"/><path d="M59.82861,9.94727l-1.72754,1.00781a13.92209,13.92209,0,0,1,1.41114,3.36767l1.92968-.52441A15.90937,15.90937,0,0,0,59.82861,9.94727Z"/><path d="M57.27393,6.647a16.03853,16.03853,0,0,0-3.31934-2.53174l-.99512,1.73438a14.04964,14.04964,0,0,1,2.90528,2.21631Z"/><path d="M30.54932,22.17041a15.91558,15.91558,0,0,0,1.606,3.855l1.7295-1.00488A13.883,13.883,0,0,1,32.481,21.65088Z"/><path d="M50.0918,2.52832A16.03746,16.03746,0,0,0,46,2h-.04541L46,4a14.03208,14.03208,0,0,1,3.581.46191Z"/><path d="M58.12939,24.99609a14.04627,14.04627,0,0,1-2.22558,2.89844l1.415,1.41406a16.06769,16.06769,0,0,0,2.542-3.31152Z"/><path d="M54.01123,31.853,53.0083,30.12256a13.91241,13.91241,0,0,1-3.37158,1.40088l.51855,1.93164A15.93177,15.93177,0,0,0,54.01123,31.853Z"/><path d="M33.85645,11.02832a14.04574,14.04574,0,0,1,2.21972-2.90283l-1.418-1.41113a16.07144,16.07144,0,0,0-2.53515,3.31591Z"/><path d="M34.70312,29.33008a16.04284,16.04284,0,0,0,3.31348,2.53857l.999-1.73242a14.06851,14.06851,0,0,1-2.90039-2.22217Z"/><path d="M14.27051,41H24a1.00071,1.00071,0,0,0,.6001-.2002l6.00311-4.50231-.58954,3.538,1.97266.3291,1-6a1.0001,1.0001,0,0,0-.82178-1.15088l-6-1-.3291,1.97266,3.69519.61572L23.6665,39H14a.998.998,0,0,0-.50391.13623l-12,7,1.00782,1.72754Z"/><path d="M47.5,12l1.56641-2.16748a1.07439,1.07439,0,0,1,1.88232,1.0332L50,12H48.5v5H55V12H52.618l.11981-.23975a3.07454,3.07454,0,0,0-5.38623-2.957l-1.31982,2.2-1.31983-2.2a3.07456,3.07456,0,0,0-5.38623,2.957L39.4455,12H37v5h6.5V12H42l-.88525-1.13428a1.0744,1.0744,0,0,1,1.88232-1.0332L44.5,12v5h3Z"/></svg>