<?xml version="1.0" encoding="utf-8"?>

<!DOCTYPE svg PUBLIC "-//W3C//DTD SVG 1.1//EN" "http://www.w3.org/Graphics/SVG/1.1/DTD/svg11.dtd">
<!-- Uploaded to: SVG Repo, www.svgrepo.com, Generator: SVG Repo Mixer Tools -->
<svg height="60px" width="60px" version="1.1" id="_x32_" xmlns="http://www.w3.org/2000/svg" xmlns:xlink="http://www.w3.org/1999/xlink" 
	 viewBox="0 0 512 512"  xml:space="preserve">
<style type="text/css">
	.st0{fill:#000000;}
</style>
<g>
	<path class="st0" d="M343.227,79.318c0-15.416-12.506-27.922-27.931-27.922h-42.489v-14.96h15.617c2.34,0,3.334-1.299,3.334-3.672
		C291.758,14.679,275.741,0,256.004,0c-19.754,0-35.755,14.679-35.755,32.764c0,2.373,0.978,3.672,3.319,3.672h15.616v14.96h-42.488
		c-15.424,0-27.915,12.506-27.915,27.922v39.804h174.445V79.318z"/>
	<path class="st0" d="M381.186,208.003c0-10.983-4.842-21.404-13.244-28.475l-15.488-13.044c-6.63-5.58-11.103-13.3-12.658-21.822
		v-8.224H172.197v8.224c-1.539,8.522-6.012,16.242-12.65,21.822l-15.488,13.044c-8.402,7.07-13.244,17.492-13.244,28.475v43.307
		c0,10.486,4.425,20.491,12.185,27.546l-1.795-1.635c7.76,7.054,12.186,17.06,12.186,27.545v43.804
		c0,7.528-2.293,14.879-6.558,21.084l-9.476,13.789c-4.264,6.206-6.541,13.557-6.541,21.085v59.548
		c0,13.164,6.942,25.349,18.278,32.051l18.102,10.694c5.74,3.391,12.282,5.179,18.936,5.179h69.874h69.858
		c6.654,0,13.196-1.788,18.936-5.179l18.11-10.694c11.336-6.702,18.278-18.888,18.278-32.051v-59.548
		c0-7.528-2.277-14.879-6.542-21.085l-9.476-13.789c-4.265-6.204-6.558-13.556-6.558-21.084v-43.804
		c0-10.486,4.426-20.491,12.186-27.545L369,278.856c7.76-7.055,12.186-17.06,12.186-27.546V208.003z M229.148,388.188l14.542-69.585
		h-21.806l12.458-72.704h49.864l-19.738,46.738h29.085L229.148,388.188z"/>
</g>
</svg>